<?xml version="1.0" encoding="UTF-8" standalone="no"?>
<svg width="26px" height="31px" viewBox="0 0 26 31" version="1.1" xmlns="http://www.w3.org/2000/svg" xmlns:xlink="http://www.w3.org/1999/xlink">
    <!-- Generator: Sketch 40 (33762) - http://www.bohemiancoding.com/sketch -->
    <title>Gold_Small</title>
    <desc>Created with Sketch.</desc>
    <defs>
        <path d="M0.658018912,11.1518895 C0.294605102,10.7350928 0,9.95045719 0,9.40028398 L0,0.996928435 C0,0.446340064 0.445598912,0 0.992231357,0 L15.6671763,0 C16.2151706,0 16.6594077,0.446755221 16.6594077,0.996928435 L16.6594077,9.40028398 C16.6594077,9.95087235 16.363715,10.7304984 15.9898551,11.1518895 L12.3643266,15.2383543 C11.9945429,15.6551509 11.2475795,15.9930314 10.6890998,15.9930314 L5.88478741,15.9930314 C5.32936886,15.9930314 4.58851406,15.6597454 4.22109426,15.2383543 L0.658018912,11.1518895 Z" id="path-1"></path>
        <path d="M10.1704054,28.5654765 C14.9608221,28.5654765 18.8442221,24.6820765 18.8442221,19.8916598 C18.8442221,15.1012431 14.9608221,11.2178431 10.1704054,11.2178431 C5.37998872,11.2178431 1.4965887,15.1012431 1.4965887,19.8916598 C1.4965887,24.6820765 5.37998872,28.5654765 10.1704054,28.5654765 Z" id="path-3"></path>
    </defs>
    <g id="Page-1" stroke="none" stroke-width="1" fill="none" fill-rule="evenodd">
        <g id="Gold_Small">
            <g id="Group" transform="translate(3.000000, 0.000000)">
                <g id="o1s" transform="translate(2.000000, 0.000000)">
                    <mask id="mask-2" fill="white">
                        <use xlink:href="#path-1"></use>
                    </mask>
                    <use id="Mask" fill="#35424F" xlink:href="#path-1"></use>
                    <rect id="Rectangle-2" fill-opacity="0.5" fill="#939FB0" mask="url(#mask-2)" x="1.98606272" y="2" width="3" height="10"></rect>
                    <rect id="Rectangle-2-Copy" fill-opacity="0.3" fill="#939FB0" mask="url(#mask-2)" x="6.51237716" y="2" width="3" height="10"></rect>
                    <rect id="Rectangle-2-Copy" fill-opacity="0.5" fill="#939FB0" mask="url(#mask-2)" x="11.0386916" y="2" width="3" height="10"></rect>
                </g>
                <path d="M11.3631814,29.9007634 C16.4111869,29.297209 20.2514309,24.9999483 20.2514309,19.8731022 C20.2514309,14.2952565 15.7296935,9.77351916 10.1518479,9.77351916 C4.57400216,9.77351916 0.0522648084,14.2952565 0.0522648084,19.8731022 C0.0522648084,25.4509479 4.57400216,29.9726852 10.1518479,29.9726852 C10.5590223,29.9726852 10.9632784,29.948577 11.3631814,29.9007634 Z M0.574912892,19.8731022 C0.574912892,14.5839071 4.86265272,10.2961672 10.1518479,10.2961672 C15.441043,10.2961672 19.7287828,14.5839071 19.7287828,19.8731022 C19.7287828,24.7345319 16.087114,28.8095856 11.3011339,29.3818114 C10.9218102,29.4271645 10.5382732,29.4500372 10.1518479,29.4500372 C4.86265272,29.4500372 0.574912892,25.1622973 0.574912892,19.8731022 Z" id="Mask" fill="#D18200"></path>
                <path d="M10.1518479,29.7113612 C10.5512915,29.7113612 10.9451752,29.6875562 11.3321576,29.6412874 C16.2091894,29.0581751 19.9901069,24.907179 19.9901069,19.8731022 C19.9901069,14.4395818 15.5853683,10.0348432 10.1518479,10.0348432 C4.71832744,10.0348432 0.31358885,14.4395818 0.31358885,19.8731022 C0.31358885,25.3066226 4.71832744,29.7113612 10.1518479,29.7113612 Z" id="Mask" fill="#F8CF1C"></path>
                <mask id="mask-4" fill="white">
                    <use xlink:href="#path-3"></use>
                </mask>
                <use id="Mask" fill="#F6A623" xlink:href="#path-3"></use>
                <path d="M14.9949374,18.9355738 L14.9949374,18.9355738 C14.9750342,17.9040984 14.8990404,16.9772131 14.7669558,16.7518033 C14.6547745,16.5606557 14.0938675,16.1531148 13.3900198,15.7113115 L11.5136958,14.6311475 C10.8116574,14.2632787 10.214563,14 9.9992471,14 C9.73326866,14 8.88828954,14.4003279 7.9817916,14.8998361 C7.29422829,15.2785246 6.57047744,15.714918 6.03671119,16.0827869 C5.61693569,16.3695082 5.31296033,16.6147541 5.23334774,16.7518033 C5.15373515,16.892459 5.0940257,17.2927869 5.05421941,17.8157377 L5.05421941,17.8157377 C5.00536622,18.4793443 4.98908183,19.3431148 5.0071756,20.1365574 C5.02888813,21.137377 5.10307259,22.0263934 5.23153836,22.25 C5.54275123,22.7909836 9.37501199,25 9.99743772,25 C10.2561787,25 11.068589,24.6177049 11.9533744,24.132623 C12.651794,23.7503279 13.3936386,23.3031148 13.9436892,22.9280328 L13.9436892,22.9280328 C14.3725116,22.6359016 14.6855339,22.3870492 14.7651465,22.2481967 C14.8447591,22.1111475 14.9044685,21.7198361 14.9424654,21.2059016 L14.9424654,21.2059016 C14.993128,20.5603279 15.0094124,19.7181967 14.9949374,18.9355738 L14.9949374,18.9355738 Z M12.2464935,21.9452459 L11.4738895,22.6377049 C11.4521769,22.6665574 11.4177988,22.6881967 11.3779925,22.6881967 C11.3399956,22.6881967 11.2965705,22.6665574 11.274858,22.6377049 L10.5511071,21.9452459 C10.516729,21.9236066 10.4950164,21.887541 10.4950164,21.8442623 C10.4950164,21.7793443 10.5474884,21.7270492 10.6144353,21.7270492 L10.9365045,21.7270492 L10.9365045,19.8227869 L9.06198975,19.8227869 L9.06198975,21.6585246 C9.06198975,21.7234426 9.00770843,21.7757377 8.94257086,21.7757377 L8.25681693,21.7757377 C8.19167935,21.7757377 8.13920741,21.7234426 8.13920741,21.6585246 L8.13558866,17.0583607 L7.81171015,17.0583607 C7.74657258,17.0583607 7.69229126,17.0060656 7.69229126,16.9411475 C7.69229126,16.8978689 7.71400379,16.8618033 7.74838195,16.8401639 L8.52098599,16.1477049 C8.54269851,16.1188525 8.57707668,16.0972131 8.61688297,16.0972131 C8.65487989,16.0972131 8.69830495,16.1188525 8.72001747,16.1477049 L9.44376832,16.8401639 C9.47814649,16.8618033 9.49985901,16.8978689 9.49985901,16.9411475 C9.49985901,17.0060656 9.44738708,17.0583607 9.3822495,17.0583607 L9.06018037,17.0583607 L9.06018037,18.9013115 L10.9346951,18.9013115 L10.9346951,17.125082 C10.9346951,17.0601639 10.9889764,17.0078689 11.054114,17.0078689 L11.7416773,17.0078689 C11.8068149,17.0078689 11.8592868,17.0601639 11.8592868,17.125082 L11.8629055,21.7252459 L12.1867841,21.7252459 C12.2519216,21.7252459 12.3043936,21.777541 12.3043936,21.842459 C12.3043936,21.887541 12.2808717,21.9236066 12.2464935,21.9452459 L12.2464935,21.9452459 Z" id="Shape" fill="#FEDF41" mask="url(#mask-4)"></path>
            </g>
            <path d="M24.2286593,1 C24.2258065,0.997249295 1.77134073,1 1.77134073,1 C1.77419355,1.0027507 24.2286593,1 24.2286593,1 Z M1.77134073,0 L24.2286593,0 C24.654659,0 25,0.443864822 25,1 C25,1.55228475 24.6607285,2 24.2286593,2 L1.77134073,2 C1.34534101,2 1,1.55613518 1,1 C1,0.44771525 1.33927155,0 1.77134073,0 Z" id="Rectangle" fill="#35424F"></path>
        </g>
    </g>
</svg>